<svg width="15" height="12" viewBox="0 0 15 12" fill="none" xmlns="http://www.w3.org/2000/svg">
<path d="M2.99117 6.18561e-09H12.0091C12.1089 -1.4028e-05 12.2073 0.0238533 12.2963 0.069651C12.3852 0.115449 12.4622 0.181877 12.5209 0.263505L14.9396 3.62512C14.9826 3.68493 15.0037 3.75796 14.9995 3.83177C14.9952 3.90559 14.9658 3.97563 14.9162 4.02997L7.73231 11.8974C7.7027 11.9298 7.66679 11.9556 7.62683 11.9732C7.58687 11.9909 7.54374 12 7.50013 12C7.45652 12 7.41339 11.9909 7.37343 11.9732C7.33347 11.9556 7.29756 11.9298 7.26794 11.8974L0.0841011 4.03061C0.0343432 3.97622 0.00480696 3.90606 0.000537582 3.8321C-0.0037318 3.75815 0.0175305 3.68499 0.0606927 3.62512L2.47935 0.263505C2.53805 0.181877 2.61502 0.115449 2.70397 0.069651C2.79293 0.0238533 2.89134 -1.4028e-05 2.99117 6.18561e-09Z" fill="url(#paint0_linear_325_16945)"/>
<defs>
<linearGradient id="paint0_linear_325_16945" x1="7.5" y1="0" x2="7.5" y2="12" gradientUnits="userSpaceOnUse">
<stop stop-color="#E6F3F3"/>
<stop offset="1" stop-color="#7E80E0"/>
</linearGradient>
</defs>
</svg>
