<svg width="19" height="18" viewBox="0 0 19 18" fill="none" xmlns="http://www.w3.org/2000/svg">
<path d="M9.73473 0.0733643C8.56973 0.0733643 7.41613 0.303142 6.33981 0.749577C5.26349 1.19601 4.28552 1.85036 3.46174 2.67527C1.79804 4.34124 0.863384 6.60078 0.863384 8.95682C0.855629 11.0081 1.56492 12.9975 2.86831 14.58L1.09404 16.3567C0.970942 16.4817 0.887555 16.6403 0.854399 16.8126C0.821243 16.9849 0.839804 17.1633 0.907741 17.325C0.981424 17.4849 1.10087 17.6192 1.25093 17.7109C1.40098 17.8027 1.57487 17.8477 1.75052 17.8403H9.73473C12.0876 17.8403 14.344 16.9043 16.0077 15.2384C17.6714 13.5724 18.6061 11.3129 18.6061 8.95682C18.6061 6.60078 17.6714 4.34124 16.0077 2.67527C14.344 1.0093 12.0876 0.0733643 9.73473 0.0733643ZM9.73473 16.0636H3.88851L4.71355 15.2374C4.87878 15.071 4.97152 14.8458 4.97152 14.6111C4.97152 14.3764 4.87878 14.1513 4.71355 13.9849C3.55192 12.8229 2.82854 11.2936 2.66665 9.65754C2.50477 8.02143 2.91439 6.37973 3.82573 5.01214C4.73707 3.64455 6.09374 2.63567 7.66461 2.1574C9.23548 1.67913 10.9234 1.76105 12.4407 2.3892C13.958 3.01736 15.2109 4.15289 15.9859 5.60233C16.7609 7.05177 17.01 8.72544 16.6909 10.3382C16.3717 11.951 15.504 13.403 14.2356 14.447C12.9672 15.491 11.3766 16.0623 9.73473 16.0636Z" fill="#323232"/>
</svg>
