<svg width="17" height="16" viewBox="0 0 17 16" fill="none" xmlns="http://www.w3.org/2000/svg">
<path d="M7.99899 15.6717C8.29352 15.9645 8.77104 15.9645 9.06557 15.6717L16.5316 8.24833C16.8261 7.95549 16.8261 7.48069 16.5316 7.18785C16.2371 6.895 15.7596 6.895 15.465 7.18785L7.99899 14.6112C7.70446 14.9041 7.70446 15.3789 7.99899 15.6717Z" fill="#323232"/>
<path d="M0.533395 7.1888C0.238868 7.48164 0.238868 7.95643 0.533395 8.24928L7.99943 15.6727C8.29396 15.9655 8.77148 15.9655 9.06601 15.6727C9.36053 15.3798 9.36054 14.905 9.06601 14.6122L1.59997 7.1888C1.30544 6.89595 0.827922 6.89595 0.533395 7.1888Z" fill="#323232"/>
<path d="M7.99965 9.43758C8.29417 9.73042 8.7717 9.73042 9.06622 9.43758L16.5323 2.0142C16.8268 1.72136 16.8268 1.24657 16.5323 0.953721C16.2377 0.660877 15.7602 0.660877 15.4657 0.953721L7.99965 8.37709C7.70512 8.66994 7.70512 9.14473 7.99965 9.43758Z" fill="#323232"/>
<path d="M0.533787 0.953398C0.23926 1.24624 0.23926 1.72104 0.533787 2.01388L7.99965 9.43758C8.29417 9.73042 8.7717 9.73042 9.06622 9.43758C9.36075 9.14473 9.36093 8.66961 9.0664 8.37677L1.60036 0.953398C1.30584 0.660554 0.828314 0.660554 0.533787 0.953398Z" fill="#323232"/>
</svg>
