<svg width="20" height="20" viewBox="0 0 20 20" fill="none" xmlns="http://www.w3.org/2000/svg">
<path d="M8.64323 17.4949L7.78152 14.8488L7.78101 14.8472C7.58451 14.2471 7.28631 13.687 6.90021 13.1888L6.89881 13.1869C6.22397 12.3203 5.30879 11.6717 4.26757 11.3224L4.26758 11.3223L4.25871 11.3194L1.62966 10.4646C1.44787 10.4018 1.28972 10.2843 1.17695 10.128L0.369411 10.7106L1.17695 10.128C1.06317 9.9703 1.00129 9.78091 1.00002 9.58621C0.998754 9.39152 1.05817 9.20134 1.16989 9.04213C1.27954 8.88589 1.43419 8.76714 1.61292 8.70158L4.26278 7.84213L4.27272 7.83891L4.2826 7.83547C5.0771 7.5593 5.79829 7.10579 6.39153 6.50935C6.98477 5.91292 7.43451 5.18922 7.7067 4.39313L7.7092 4.38581L7.71159 4.37845L8.58404 1.69164C8.64793 1.51007 8.7661 1.35269 8.92237 1.24084C9.08308 1.13132 9.27298 1.07275 9.46736 1.07275C9.66178 1.07275 9.85172 1.13134 10.0124 1.2409C10.1648 1.34985 10.2807 1.50236 10.3451 1.67848L11.2053 4.3273L11.2053 4.32731L11.208 4.33543C11.4811 5.15246 11.9406 5.89467 12.5502 6.50319C13.1598 7.11172 13.9027 7.56984 14.7201 7.84118L14.7201 7.84119L14.7259 7.84306L17.3608 8.70016L17.3699 8.70313L17.3791 8.70593C17.5197 8.74869 17.6482 8.82431 17.7539 8.92661C17.8596 9.02891 17.9396 9.15496 17.9871 9.2944C18.0346 9.43383 18.0483 9.58259 18.0271 9.7284C18.0059 9.87421 17.9503 10.0128 17.865 10.1328L17.865 10.1328L17.8612 10.1382C17.753 10.2926 17.5999 10.4096 17.4231 10.4736L14.7736 11.3349L14.7736 11.3349L14.7658 11.3375C13.9491 11.6104 13.2072 12.0698 12.5987 12.6792C11.9903 13.2886 11.5319 14.0313 11.2599 14.8485L11.2588 14.852L10.3604 17.5841C10.3051 17.6971 10.2277 17.7979 10.1326 17.8804C10.0276 17.9715 9.9038 18.0381 9.77005 18.0753C9.63632 18.1125 9.496 18.1195 9.35924 18.0958C9.23928 18.075 9.12466 18.0309 9.02173 17.9663L8.9812 17.9377C8.82645 17.8285 8.70837 17.6741 8.64323 17.4949Z" stroke="#323232" stroke-width="2"/>
</svg>
