<svg width="20" height="20" viewBox="0 0 20 20" fill="none" xmlns="http://www.w3.org/2000/svg">
<path d="M9.27372 18.5884C9.08471 18.5556 8.90438 18.4853 8.74327 18.3818L8.69284 18.3462C8.45206 18.1762 8.26939 17.9355 8.17014 17.6569L7.30609 15.0036L7.30584 15.0028C7.12729 14.4575 6.85626 13.9483 6.505 13.495L6.50429 13.4941C5.88982 12.705 5.05654 12.1144 4.10854 11.7964L4.10854 11.7964L4.10411 11.7949L1.47127 10.9389C1.19004 10.8429 0.945477 10.6618 0.771452 10.4206L0.36725 10.7121L0.771452 10.4206C0.596863 10.1785 0.501972 9.88803 0.50003 9.58947C0.498089 9.2909 0.589194 8.99918 0.760621 8.75491L0.355742 8.47077L0.760621 8.75491C0.930879 8.5123 1.17194 8.32849 1.45062 8.22858L4.10852 7.36652L4.10855 7.36662L4.11843 7.36319C4.8412 7.11195 5.49731 6.69937 6.03703 6.15675C6.57676 5.61412 6.98594 4.95569 7.23359 4.23137L7.23365 4.23139L7.23604 4.22403L8.11016 1.53207C8.2082 1.24919 8.39207 1.00406 8.63604 0.830914C8.88072 0.662759 9.17056 0.572754 9.46736 0.572754C9.76418 0.572754 10.054 0.66277 10.2987 0.830946C10.538 1.00067 10.7193 1.23995 10.8181 1.51635L11.6809 4.17286L11.6808 4.17287L11.6822 4.17693C11.9307 4.92035 12.3488 5.59566 12.9034 6.14933C13.4581 6.70299 14.134 7.11978 14.8777 7.36664L14.8777 7.36665L14.8805 7.36758L17.5154 8.22468L17.5154 8.22477L17.5246 8.22757C17.7411 8.29341 17.9389 8.40984 18.1016 8.56728C18.2643 8.72471 18.3873 8.91864 18.4604 9.13308C18.5335 9.34751 18.5545 9.57628 18.5219 9.80049C18.4892 10.0247 18.4037 10.2379 18.2725 10.4225L18.2706 10.4252C18.1016 10.6663 17.8618 10.8486 17.5847 10.9468L14.9282 11.8104L14.9282 11.8104L14.9243 11.8117C14.1812 12.06 13.5062 12.478 12.9526 13.0325C12.3989 13.587 11.9818 14.2628 11.7343 15.0064L11.7338 15.0082L10.8258 17.7694C10.7403 17.9565 10.6157 18.1232 10.4603 18.2581C10.2993 18.3978 10.1094 18.4999 9.90415 18.557C9.69893 18.6141 9.48359 18.6249 9.27372 18.5884Z" fill="#323232" stroke="#323232"/>
</svg>
