<svg width="17" height="16" viewBox="0 0 17 16" fill="none" xmlns="http://www.w3.org/2000/svg">
<path d="M7.99924 0.530302C8.29377 0.237458 8.77129 0.237458 9.06581 0.530302L16.5319 7.95368C16.8264 8.24652 16.8264 8.72131 16.5319 9.01416C16.2373 9.307 15.7598 9.307 15.4653 9.01416L7.99924 1.59078C7.70471 1.29794 7.70471 0.823146 7.99924 0.530302Z" fill="#323232"/>
<path d="M0.53364 9.01434C0.239113 8.72149 0.239113 8.2467 0.53364 7.95385L7.99924 0.530302C8.29377 0.237458 8.77129 0.237458 9.06581 0.530302C9.36034 0.823146 9.36078 1.29812 9.06625 1.59096L1.60022 9.01434C1.30569 9.30718 0.828167 9.30718 0.53364 9.01434Z" fill="#323232"/>
<path d="M7.99948 6.76431C8.29401 6.47147 8.77153 6.47147 9.06606 6.76431L16.5321 14.1877C16.8266 14.4805 16.8266 14.9553 16.5321 15.2482C16.2376 15.541 15.76 15.541 15.4655 15.2482L7.99948 7.82479C7.70496 7.53195 7.70496 7.05716 7.99948 6.76431Z" fill="#323232"/>
<path d="M0.533639 15.2485C0.239112 14.9557 0.239112 14.4809 0.533639 14.188L7.99948 6.76431C8.29401 6.47147 8.77153 6.47147 9.06606 6.76431C9.36059 7.05716 9.36078 7.5323 9.06625 7.82515L1.60022 15.2485C1.30569 15.5414 0.828166 15.5414 0.533639 15.2485Z" fill="#323232"/>
</svg>
