<svg width="39" height="50" viewBox="0 0 39 50" fill="none" xmlns="http://www.w3.org/2000/svg">
<g filter="url(#filter0_d_450_17771)">
<path d="M28 28.679C28 28.0911 27.7275 27.5347 27.2584 27.1649L21.2584 22.4339C20.5246 21.8554 19.4754 21.8554 18.7416 22.4339L12.7416 27.1649C12.2725 27.5347 12 28.0911 12 28.679V36.052C12 37.1278 12.8954 38 14 38H17C18.1046 38 19 37.1278 19 36.052V35.0316C19 34.4936 19.4477 34.0575 20 34.0575C20.5523 34.0575 21 34.4936 21 35.0316V36.052C21 37.1278 21.8954 38 23 38H26C27.1046 38 28 37.1278 28 36.052V28.679Z" fill="#FBC18B"/>
</g>
<path d="M0 0H39L31 48H9L0 0Z" fill="url(#paint0_linear_450_17771)" fill-opacity="0.2"/>
<rect x="8" y="47" width="24" height="3" rx="1.5" fill="#323232"/>
<defs>
<filter id="filter0_d_450_17771" x="8" y="20" width="24" height="24" filterUnits="userSpaceOnUse" color-interpolation-filters="sRGB">
<feFlood flood-opacity="0" result="BackgroundImageFix"/>
<feColorMatrix in="SourceAlpha" type="matrix" values="0 0 0 0 0 0 0 0 0 0 0 0 0 0 0 0 0 0 127 0" result="hardAlpha"/>
<feOffset dy="2"/>
<feGaussianBlur stdDeviation="2"/>
<feComposite in2="hardAlpha" operator="out"/>
<feColorMatrix type="matrix" values="0 0 0 0 0 0 0 0 0 0 0 0 0 0 0 0 0 0 0.25 0"/>
<feBlend mode="normal" in2="BackgroundImageFix" result="effect1_dropShadow_450_17771"/>
<feBlend mode="normal" in="SourceGraphic" in2="effect1_dropShadow_450_17771" result="shape"/>
</filter>
<linearGradient id="paint0_linear_450_17771" x1="19.5" y1="0" x2="19.5" y2="48" gradientUnits="userSpaceOnUse">
<stop stop-color="#D9D9D9" stop-opacity="0"/>
<stop offset="1" stop-color="#515151" stop-opacity="0.58"/>
</linearGradient>
</defs>
</svg>
