<svg width="39" height="50" viewBox="0 0 39 50" fill="none" xmlns="http://www.w3.org/2000/svg">
<path d="M16.1361 33.4119C16.2795 33.5131 16.4436 33.5812 16.6166 33.6112C16.7896 33.6413 16.9671 33.6324 17.1362 33.5854C17.3054 33.5383 17.4619 33.4542 17.5946 33.3392C17.7272 33.2242 17.8326 33.0811 17.9031 32.9203L18.463 31.2187C18.5993 30.8094 18.8291 30.4375 19.134 30.1323C19.4389 29.8271 19.8107 29.5971 20.2199 29.4604L21.8473 28.9318C22.0783 28.8509 22.2782 28.6995 22.4188 28.4991C22.5271 28.3469 22.5976 28.1711 22.6246 27.9862C22.6515 27.8014 22.6341 27.6128 22.5738 27.436C22.5135 27.2592 22.412 27.0992 22.2777 26.9694C22.1434 26.8395 21.9802 26.7435 21.8015 26.6892L20.1908 26.1656C19.7813 26.0298 19.4091 25.8004 19.1036 25.4957C18.7982 25.191 18.5679 24.8194 18.431 24.4102L17.9024 22.7835C17.821 22.5531 17.6701 22.3536 17.4704 22.2127C17.2695 22.0742 17.0313 22 16.7873 22C16.5432 22 16.305 22.0742 16.1041 22.2127C15.9012 22.356 15.7485 22.5595 15.6678 22.7944L15.1326 24.4415C14.9962 24.8401 14.7709 25.2024 14.4736 25.501C14.1764 25.7996 13.8152 26.0266 13.4172 26.1649L11.7883 26.6928C11.5565 26.7747 11.3561 26.9269 11.2148 27.1281C11.0735 27.3292 10.9984 27.5695 11 27.8153C11.0016 28.0611 11.0798 28.3003 11.2237 28.4997C11.3676 28.699 11.57 28.8485 11.8029 28.9274L13.4143 29.451C13.9368 29.6261 14.3961 29.9514 14.7348 30.3861C14.9282 30.6355 15.0773 30.9155 15.1755 31.2151L15.7049 32.8396C15.7863 33.0708 15.9376 33.2708 16.1375 33.4119H16.1361ZM23.2216 37.8331C23.3696 37.9376 23.5465 37.9936 23.7277 37.993C23.9077 37.9936 24.0835 37.9385 24.2309 37.8352C24.3824 37.7277 24.4959 37.575 24.5553 37.3989L24.8258 36.5678C24.8829 36.3952 24.9795 36.2383 25.1079 36.1096C25.2363 35.9808 25.3929 35.8837 25.5653 35.8261L26.4132 35.5512C26.5843 35.4904 26.7324 35.3783 26.8375 35.2302C26.9425 35.0821 26.9992 34.9052 27 34.7237C27 34.5375 26.9404 34.3561 26.83 34.2062C26.7196 34.0563 26.5641 33.9456 26.3863 33.8903L25.5544 33.6213C25.3817 33.5641 25.2248 33.4673 25.096 33.3388C24.9673 33.2103 24.8702 33.0536 24.8127 32.881L24.5363 32.0353C24.4768 31.8627 24.3645 31.7132 24.2154 31.6077C24.0664 31.5023 23.888 31.4462 23.7054 31.4475C23.5228 31.4488 23.3452 31.5073 23.1976 31.6149C23.05 31.7224 22.9399 31.8735 22.8828 32.047L22.6108 32.8803C22.5551 33.0506 22.461 33.2059 22.3358 33.3341C22.2106 33.4623 22.0576 33.56 21.8887 33.6198L21.0408 33.8947C20.8696 33.9555 20.7214 34.0677 20.6163 34.216C20.5113 34.3642 20.4546 34.5413 20.454 34.723C20.4542 34.9063 20.5121 35.0849 20.6195 35.2334C20.727 35.3819 20.8784 35.4929 21.0525 35.5505L21.8844 35.821C22.0575 35.8784 22.2148 35.9756 22.3436 36.1048C22.4724 36.234 22.5691 36.3916 22.6261 36.5649L22.9017 37.4106C22.9618 37.5814 23.0736 37.7286 23.2216 37.8331Z" fill="#FBC18B"/>
<path d="M0 0H39L31 48H9L0 0Z" fill="url(#paint0_linear_450_17891)" fill-opacity="0.2"/>
<rect x="8" y="47" width="24" height="3" rx="1.5" fill="#323232"/>
<defs>
<linearGradient id="paint0_linear_450_17891" x1="19.5" y1="0" x2="19.5" y2="48" gradientUnits="userSpaceOnUse">
<stop stop-color="#D9D9D9" stop-opacity="0"/>
<stop offset="1" stop-color="#515151" stop-opacity="0.58"/>
</linearGradient>
</defs>
</svg>
