<svg width="16" height="16" viewBox="0 0 16 16" fill="none" xmlns="http://www.w3.org/2000/svg">
<path d="M5.13607 11.4119C5.27948 11.5131 5.44362 11.5812 5.61661 11.6112C5.78959 11.6413 5.96708 11.6324 6.13622 11.5854C6.30536 11.5383 6.46192 11.4542 6.59456 11.3392C6.72719 11.2242 6.83258 11.0811 6.90309 10.9203L7.46302 9.21872C7.59934 8.80942 7.82906 8.43746 8.13398 8.13229C8.43891 7.82711 8.81067 7.59709 9.21986 7.46042L10.8473 6.93177C11.0783 6.85085 11.2782 6.69954 11.4188 6.4991C11.5271 6.34688 11.5976 6.17109 11.6246 5.98623C11.6515 5.80138 11.6341 5.61277 11.5738 5.43597C11.5135 5.25917 11.412 5.09924 11.2777 4.96939C11.1434 4.83954 10.9802 4.74349 10.8015 4.68917L9.19077 4.16561C8.78128 4.02977 8.40905 3.80042 8.1036 3.49572C7.79815 3.19103 7.56787 2.81938 7.43102 2.41022L6.90237 0.783538C6.821 0.553109 6.67007 0.353644 6.47043 0.212709C6.26953 0.0741824 6.03127 0 5.78725 0C5.54323 0 5.30497 0.0741824 5.10407 0.212709C4.90118 0.35601 4.74853 0.559539 4.66777 0.794445L4.13257 2.44149C3.99619 2.8401 3.77085 3.20243 3.47364 3.50103C3.17643 3.79962 2.81515 4.02664 2.41718 4.16488L0.788316 4.69281C0.556536 4.77474 0.356058 4.92688 0.214774 5.12806C0.0734892 5.32924 -0.00157488 5.56945 2.5054e-05 5.81528C0.00162498 6.06111 0.0798093 6.30033 0.2237 6.49965C0.367591 6.69898 0.570033 6.8485 0.802859 6.9274L2.41427 7.45097C2.93678 7.62614 3.39609 7.9514 3.73481 8.38611C3.92824 8.63553 4.07731 8.91549 4.17548 9.21508L4.70486 10.8396C4.7863 11.0708 4.93755 11.2708 5.13752 11.4119H5.13607ZM12.2216 15.8331C12.3696 15.9376 12.5465 15.9936 12.7277 15.993C12.9077 15.9936 13.0835 15.9385 13.2309 15.8352C13.3824 15.7277 13.4959 15.575 13.5553 15.3989L13.8258 14.5678C13.8829 14.3952 13.9795 14.2383 14.1079 14.1096C14.2363 13.9808 14.3929 13.8837 14.5653 13.8261L15.4132 13.5512C15.5843 13.4904 15.7324 13.3783 15.8375 13.2302C15.9425 13.0821 15.9992 12.9052 16 12.7237C16 12.5375 15.9404 12.3561 15.83 12.2062C15.7196 12.0563 15.5641 11.9456 15.3863 11.8903L14.5544 11.6213C14.3817 11.5641 14.2248 11.4673 14.096 11.3388C13.9673 11.2103 13.8702 11.0536 13.8127 10.881L13.5363 10.0353C13.4768 9.86273 13.3645 9.71317 13.2154 9.60771C13.0664 9.50226 12.888 9.44623 12.7054 9.44752C12.5228 9.4488 12.3452 9.50734 12.1976 9.61488C12.05 9.72241 11.9399 9.87354 11.8828 10.047L11.6108 10.8803C11.5551 11.0506 11.461 11.2059 11.3358 11.3341C11.2106 11.4623 11.0576 11.56 10.8887 11.6198L10.0408 11.8947C9.86963 11.9555 9.72138 12.0677 9.61634 12.216C9.51131 12.3642 9.45461 12.5413 9.45401 12.723C9.4542 12.9063 9.51212 13.0849 9.61954 13.2334C9.72696 13.3819 9.87844 13.4929 10.0525 13.5505L10.8844 13.821C11.0575 13.8784 11.2148 13.9756 11.3436 14.1048C11.4724 14.234 11.5691 14.3916 11.6261 14.5649L11.9017 15.4106C11.9618 15.5814 12.0736 15.7286 12.2216 15.8331Z" fill="#323232"/>
</svg>
