<svg width="24" height="24" viewBox="0 0 24 24" fill="none" xmlns="http://www.w3.org/2000/svg">
<g filter="url(#filter0_d_325_22870)">
<path d="M20 8.67898C20 8.09114 19.7275 7.53474 19.2584 7.16488L13.2584 2.43393C12.5246 1.85535 11.4754 1.85536 10.7416 2.43394L4.7416 7.16488C4.27252 7.53474 4 8.09114 4 8.67898V16.052C4 17.1278 4.89543 18 6 18H9C10.1046 18 11 17.1278 11 16.052V15.0316C11 14.4936 11.4477 14.0575 12 14.0575C12.5523 14.0575 13 14.4936 13 15.0316V16.052C13 17.1278 13.8954 18 15 18H18C19.1046 18 20 17.1278 20 16.052V8.67898Z" fill="#323232"/>
</g>
<defs>
<filter id="filter0_d_325_22870" x="0" y="0" width="24" height="24" filterUnits="userSpaceOnUse" color-interpolation-filters="sRGB">
<feFlood flood-opacity="0" result="BackgroundImageFix"/>
<feColorMatrix in="SourceAlpha" type="matrix" values="0 0 0 0 0 0 0 0 0 0 0 0 0 0 0 0 0 0 127 0" result="hardAlpha"/>
<feOffset dy="2"/>
<feGaussianBlur stdDeviation="2"/>
<feComposite in2="hardAlpha" operator="out"/>
<feColorMatrix type="matrix" values="0 0 0 0 0 0 0 0 0 0 0 0 0 0 0 0 0 0 0.25 0"/>
<feBlend mode="normal" in2="BackgroundImageFix" result="effect1_dropShadow_325_22870"/>
<feBlend mode="normal" in="SourceGraphic" in2="effect1_dropShadow_325_22870" result="shape"/>
</filter>
</defs>
</svg>
